<?xml version="1.0" encoding="utf-8"?>
<!-- Generator: Adobe Illustrator 25.2.1, SVG Export Plug-In . SVG Version: 6.00 Build 0)  -->
<svg version="1.1" id="Layer_1" xmlns="http://www.w3.org/2000/svg" xmlns:xlink="http://www.w3.org/1999/xlink" x="0px" y="0px"
	 viewBox="0 0 548.69 164.87" style="enable-background:new 0 0 548.69 164.87;" xml:space="preserve">
<style type="text/css">
	.st0{fill:#FFFFFF;}
	.st1{fill:#95B6B9;}
	.st2{fill:#3D3D3C;}
</style>
<rect x="57.3" y="84.28" class="st1" width="20.77" height="20.32"/>
<rect x="82.54" y="59.47" class="st1" width="20.77" height="20.32"/>
<path class="st2" d="M153.61,103.75c-1.93,0.3-4.27,0.84-11.43,0.84c-7.82,0-13.9-2.11-13.9-12.34v-21
	c0-10.23,6.08-12.34,13.9-12.34c7.16,0,9.51,0.54,11.43,0.84c0.9,0.12,1.2,0.42,1.2,1.27v3.85c0,0.66-0.54,1.2-1.2,1.2h-12.28
	c-3.49,0-4.75,1.21-4.75,5.18v6.5h16.31c0.66,0,1.2,0.54,1.2,1.2v4.33c0,0.66-0.54,1.21-1.2,1.21h-16.31v7.76
	c0,3.97,1.26,5.17,4.75,5.17h12.28c0.66,0,1.2,0.54,1.2,1.21v3.85C154.81,103.33,154.51,103.63,153.61,103.75"/>
<path class="st2" d="M170.13,77.45v8.69c0,8.54,4.16,11.29,7.72,11.29c2.23,0,4.08-0.04,5.94-0.19v-9.77h-2.19
	c-0.63,0-1.19-0.56-1.19-1.23v-4.31c0-0.67,0.56-1.23,1.19-1.23h9.32c0.63,0,1.19,0.52,1.19,1.19v20.24c0,0.78-0.37,1.26-1.15,1.41
	c-3.01,0.63-6.91,1.04-13.11,1.04c-6.5,0-16.12-4.27-16.12-18.46v-8.69c0-14.26,9.14-18.53,16.3-18.53c5.76,0,10.95,0.71,12.92,1.08
	c0.78,0.19,1.15,0.48,1.15,1.26v4.05c0,0.85-0.26,1.26-1.19,1.26h-0.19c-2.79-0.26-6.94-0.48-12.7-0.48
	C173.99,66.08,170.13,68.91,170.13,77.45"/>
<g>
	<path class="st2" d="M233.5,105.01c-4.21,0-7.34-0.42-9.99-0.84c-1.02-0.18-1.14-0.42-1.14-1.08v-2.41c0-0.66,0.48-0.96,1.02-0.96
		c0.06,0,0.12,0,0.18,0c2.77,0.24,7.16,0.36,9.93,0.36c7.22,0,9.15-2.89,9.15-7.1c0-3.01-1.75-4.69-7.22-8.06l-5.84-3.55
		c-5.54-3.37-8.3-6.44-8.3-11.25c0-7.28,5.23-10.65,14.38-10.65c3.55,0,8.18,0.36,10.47,0.72c0.6,0.12,1.02,0.42,1.02,1.02v2.59
		c0,0.6-0.42,0.96-1.02,0.96c-0.06,0-0.06,0-0.12,0c-2.65-0.18-6.86-0.36-10.35-0.36c-6.2,0-8.84,1.32-8.84,5.72
		c0,2.83,1.99,4.51,6.56,7.28l5.54,3.31c6.98,4.15,9.45,7.46,9.45,12.27C248.36,98.76,245.35,105.01,233.5,105.01z"/>
	<path class="st2" d="M277.29,104.59h-2.77c-0.66,0-1.2-0.54-1.2-1.2v-1.32c-2.89,1.68-5.9,2.95-9.27,2.95
		c-5.11,0-9.81-2.23-9.81-9.75v-0.72c0-6.5,3.79-9.75,14.5-9.75h4.45v-2.41c0-5.05-1.74-6.8-6.44-6.8c-3.91,0-6.8,0.24-9.21,0.48
		c-0.12,0-0.18,0-0.3,0c-0.54,0-1.08-0.18-1.08-0.96v-2.11c0-0.66,0.42-1.02,1.26-1.14c2.47-0.42,5.23-0.78,9.33-0.78
		c8.36,0,11.73,4.21,11.73,11.31v21C278.5,104.05,277.95,104.59,277.29,104.59z M273.2,88.59h-4.45c-7.28,0-9.21,1.62-9.21,5.9v0.72
		c0,4.33,2.05,5.48,5.54,5.48c2.77,0,5.23-0.84,8.12-2.41V88.59z"/>
	<path class="st2" d="M302.92,63.02h-2.89c-2.83,0-3.67,0.84-3.67,4.15v4.33h6.32c0.66,0,1.14,0.48,1.14,1.08v2.35
		c0,0.6-0.48,1.02-1.14,1.02h-6.32v27.44c0,0.6-0.54,1.2-1.14,1.2h-2.95c-0.66,0-1.2-0.6-1.2-1.2V75.95l-5.84-0.66
		c-0.66-0.06-1.14-0.48-1.14-1.08v-1.62c0-0.6,0.48-1.08,1.14-1.08h5.84v-4.33c0-6.44,3.13-8.36,8.42-8.36
		c1.62,0,2.59,0.18,3.37,0.36c0.66,0.18,1.14,0.42,1.14,0.96v1.99C304,62.78,303.58,63.02,302.92,63.02z"/>
	<path class="st2" d="M333.96,89.73h-20.16v0.84c0,7.16,2.83,9.81,8.36,9.81c3.49,0,7.94-0.24,10.71-0.66c0.12,0,0.18,0,0.3,0
		c0.48,0,0.96,0.24,0.96,0.84v2.05c0,0.78-0.24,1.2-1.2,1.38c-3.43,0.66-6.74,1.02-10.77,1.02c-6.92,0-13.66-3.25-13.66-14.44v-5.42
		c0-8.6,4.75-14.08,13.36-14.08c8.78,0,13.24,5.54,13.24,14.08v3.25C335.1,89.19,334.68,89.73,333.96,89.73z M329.75,85.16
		c0-6.8-2.59-9.45-7.88-9.45c-5.17,0-8.06,2.95-8.06,9.45v0.54h15.94V85.16z"/>
	<path class="st2" d="M358.81,104.71c-1.2,0.18-2.77,0.3-3.91,0.3c-5.54,0-8.18-1.44-8.18-8.06v-21l-5.84-0.66
		c-0.66-0.06-1.14-0.42-1.14-1.08v-1.62c0-0.66,0.48-1.08,1.14-1.08h5.84v-5.9c0-0.6,0.42-1.08,1.08-1.2l3.13-0.48
		c0.06,0,0.12,0,0.18,0c0.48,0,0.9,0.42,0.9,1.02v6.56h6.5c0.66,0,1.2,0.54,1.2,1.2v2.05c0,0.66-0.54,1.2-1.2,1.2h-6.5v21
		c0,3.31,0.84,3.79,3.25,3.79h3.37c0.84,0,1.26,0.24,1.26,0.84v2.11C359.89,104.23,359.59,104.59,358.81,104.71z"/>
	<path class="st2" d="M391.11,72.95l-9.93,34.66c-1.86,6.5-4.09,8.9-11.01,8.9c-1.68,0-3.79-0.24-5.05-0.54
		c-0.72-0.18-1.26-0.36-1.26-0.96v-2.23c0-0.66,0.48-0.96,1.14-0.96c0.06,0,0.12,0,0.18,0c1.32,0.12,4.03,0.36,5.36,0.36
		c3.43,0,4.93-0.9,5.96-5.11l0.6-2.47h-0.84c-1.81,0-3.37-0.42-4.45-4.15l-8-27.5c-0.06-0.12-0.06-0.3-0.06-0.42
		c0-0.6,0.36-1.02,1.08-1.02h3.31c0.48,0,0.9,0.48,1.02,0.96l7.1,26.11c0.3,1.2,0.72,1.32,1.14,1.32h0.96l7.34-27.5
		c0.12-0.48,0.6-0.9,1.14-0.9h3.37c0.6,0,0.96,0.42,0.96,1.02C391.17,72.65,391.17,72.83,391.11,72.95z"/>
	<path class="st2" d="M427.99,104.59h-3.73c-0.96,0-1.62-0.36-1.92-0.96l-18.59-35.32c-0.06-0.12-0.12-0.18-0.18-0.18
		c-0.06,0-0.06,0.06-0.06,0.18v35.14c0,0.6-0.48,1.14-1.08,1.14h-3.13c-0.6,0-1.08-0.12-1.08-0.72v-42.3c0-0.96,0.78-1.69,1.74-1.69
		h3.31c1.68,0,1.99,0.3,2.47,1.2l18.47,35.14l0.12,0.18c0.06,0,0.06-0.12,0.06-0.18v-35.2c0-0.6,0.48-1.14,1.08-1.14h3.19
		c0.66,0,1.08,0.54,1.08,1.14v41.81C429.73,103.81,428.95,104.59,427.99,104.59z"/>
	<path class="st2" d="M462.88,89.73h-20.16v0.84c0,7.16,2.83,9.81,8.36,9.81c3.49,0,7.94-0.24,10.71-0.66c0.12,0,0.18,0,0.3,0
		c0.48,0,0.96,0.24,0.96,0.84v2.05c0,0.78-0.24,1.2-1.2,1.38c-3.43,0.66-6.74,1.02-10.77,1.02c-6.92,0-13.66-3.25-13.66-14.44v-5.42
		c0-8.6,4.75-14.08,13.36-14.08c8.78,0,13.24,5.54,13.24,14.08v3.25C464.02,89.19,463.6,89.73,462.88,89.73z M458.67,85.16
		c0-6.8-2.59-9.45-7.88-9.45c-5.17,0-8.06,2.95-8.06,9.45v0.54h15.94V85.16z"/>
	<path class="st2" d="M487.72,104.71c-1.2,0.18-2.77,0.3-3.91,0.3c-5.54,0-8.18-1.44-8.18-8.06v-21l-5.84-0.66
		c-0.66-0.06-1.14-0.42-1.14-1.08v-1.62c0-0.66,0.48-1.08,1.14-1.08h5.84v-5.9c0-0.6,0.42-1.08,1.08-1.2l3.13-0.48
		c0.06,0,0.12,0,0.18,0c0.48,0,0.9,0.42,0.9,1.02v6.56h6.5c0.66,0,1.2,0.54,1.2,1.2v2.05c0,0.66-0.54,1.2-1.2,1.2h-6.5v21
		c0,3.31,0.84,3.79,3.25,3.79h3.37c0.84,0,1.26,0.24,1.26,0.84v2.11C488.81,104.23,488.5,104.59,487.72,104.71z"/>
</g>
</svg>
