<?xml version="1.0" encoding="utf-8"?>
<!-- Generator: Adobe Illustrator 18.0.0, SVG Export Plug-In . SVG Version: 6.00 Build 0)  -->
<!DOCTYPE svg PUBLIC "-//W3C//DTD SVG 1.1//EN" "http://www.w3.org/Graphics/SVG/1.1/DTD/svg11.dtd">
<svg version="1.1" id="Layer_1" xmlns="http://www.w3.org/2000/svg" xmlns:xlink="http://www.w3.org/1999/xlink" x="0px" y="0px"
	 viewBox="-0.9 95.8 342 64" enable-background="new -0.9 95.8 342 64" xml:space="preserve">
<g>
	<g>
		<path fill="#4E4E4E" d="M0,135.6V97.1h3v17.2h21.5V97.1h2.9v38.5h-2.9v-18.7H3v18.7H0z"/>
		<path fill="#4E4E4E" d="M33.1,134.4l0.6-2.5c5.7,1.4,9.3,1.7,12.6,1.7c7.4,0,10-4.2,10-7.9c0-5.7-6.5-7.3-10.3-8.3
			c-5.8-1.4-12.4-4.7-12.4-11.2c0-6.9,5.6-9.6,12.6-9.6c4.1,0,8,0.6,12.5,1.9l-0.7,2.5c-5.7-1.4-8.6-1.7-11.8-1.7
			c-7.4,0-9.5,3.4-9.5,7c0,5.6,7.2,7.6,11,8.6c5.9,1.3,11.6,4,11.6,10.6c0,7.1-5.5,10.8-13.1,10.8C42.2,136.2,37.6,135.6,33.1,134.4
			z"/>
		<path fill="#4E4E4E" d="M88.4,99.8H68.2v14.4h17.7v2.7H68.2v16h20.5v2.7H65.2V97.1h23.2V99.8z"/>
		<path fill="#4E4E4E" d="M111.2,96.5c12.8,0,15.7,9,15.7,19.5c0,10.5-3,18.9-13.8,19.2c1.1,1.7,4,2.8,7.1,3.1
			c1.9,0.2,3.9,0.2,5.9-0.1v2.7c-2,0.2-4,0.3-5.9,0.1c-4.3-0.4-8-2-9.9-4.9c-12.1-0.4-15-9.5-15-20.1
			C95.5,105.5,98.4,96.5,111.2,96.5z M98.6,116.1c0,8.8,1.8,17.6,12.6,17.6c10.8,0,12.6-8.8,12.6-17.6c0-8.8-1.8-17-12.6-17
			C100.4,99.1,98.6,107.3,98.6,116.1z"/>
		<path fill="#676767" d="M154.4,124.7h0.1l10.3-27.6h8.7v38.5H167V109h-0.1l-10.4,26.6h-4.8L141.5,109h-0.1v26.6h-6.4V97.1h8.7
			L154.4,124.7z"/>
		<path fill="#676767" d="M201.1,126.4h-13.4l-2.9,9.2h-7l12.8-38.8h8.1l12.6,38.8h-7.3L201.1,126.4z M194.4,105l-5.4,15.8h10.7
			l-5.2-15.8H194.4z"/>
		<path fill="#676767" d="M213.6,134.1l1.1-5.6c6,1.4,10,1.7,13.1,1.7c4.8,0,7.3-2.4,7.3-5.2c0-4.1-5-5-9.3-6.2
			c-6.5-1.8-11.7-5.3-11.7-11.8c0-7.5,6.1-10.5,13.7-10.5c4.3,0,8.3,0.6,13.3,2l-1.5,5.6c-5.9-1.4-8.8-1.7-11.8-1.7
			c-4.8,0-6.7,2.1-6.7,4.8c0,3.8,4.9,5.1,9.3,6.1c6.5,1.5,11.6,4.6,11.6,11.3c0,7.9-6.2,11.6-14.2,11.6
			C223.5,136.2,218.6,135.6,213.6,134.1z"/>
		<path fill="#676767" d="M262.5,103v32.6H256V103h-10.4v-5.9h27.3v5.9H262.5z"/>
		<path fill="#676767" d="M303.8,103H285v9.7h16.2v5.9H285v11.1h19v5.9h-25.6V97.1h25.3V103z"/>
		<path fill="#676767" d="M332.3,135.6l-8.6-14.4h-6.9v14.4h-6.6V97.1h16.1c7.8,0,12.3,4.9,12.3,12.1c0,5.3-2.7,9.7-8.1,11l9.4,15.4
			H332.3z M316.7,115.4h8.6c3.8,0,6.5-1.9,6.5-6.2c0-4.1-2.5-6.2-6.3-6.2h-8.8V115.4z"/>
	</g>
	<g>
		<path fill="#4E4E4E" d="M235.2,150L235.2,150c0.5-0.5,1.3-0.8,2.1-0.8c1.8,0,2.5,1.5,2.5,3.4c0,1.9-0.7,3.4-2.5,3.4
			c-0.8,0-1.6-0.3-2.1-0.8h0l-0.2,0.7h-0.7v-9.2h0.9V150z M237,149.9c-0.8,0-1.5,0.4-1.8,0.6v4c0.3,0.2,1,0.6,1.8,0.6
			c1.4,0,1.8-1.2,1.8-2.6C238.8,151.2,238.4,149.9,237,149.9z"/>
		<path fill="#4E4E4E" d="M240.5,149.3h1l2.1,5.7h0l1.9-5.7h1l-2.5,7c-0.6,1.6-1.3,2.3-2.5,2.3c-0.3,0-0.6,0-0.9-0.1l0.1-0.8
			c0.2,0.1,0.4,0.1,0.6,0.1c1,0,1.5-1,1.8-1.8L240.5,149.3z"/>
		<path fill="#4E4E4E" d="M257.9,147.8h-4.4v3.3h3.9v0.9h-3.9v3.9h-1v-8.9h5.4V147.8z"/>
		<path fill="#4E4E4E" d="M265.2,155.9l-2.2-3.6h-2.2v3.6h-1v-8.9h3.6c1.7,0,2.7,1.2,2.7,2.6c0,1.3-0.7,2.3-2.1,2.5l2.4,3.8H265.2z
			 M260.7,151.4h2.5c1.1,0,1.8-0.6,1.8-1.8c0-1.1-0.7-1.8-1.8-1.8h-2.5V151.4z"/>
		<path fill="#4E4E4E" d="M267.6,151.3c0-2.5,0.7-4.5,3.7-4.5c3,0,3.7,2,3.7,4.5c0,2.5-0.7,4.7-3.7,4.7
			C268.4,156,267.6,153.9,267.6,151.3z M268.7,151.3c0,2,0.4,3.8,2.7,3.8s2.7-1.9,2.7-3.8s-0.4-3.7-2.7-3.7S268.7,149.4,268.7,151.3
			z"/>
		<path fill="#4E4E4E" d="M276.9,155.9v-8.9h1l4.7,7.1h0v-7.1h0.9v8.9h-1l-4.7-7h0v7H276.9z"/>
		<path fill="#4E4E4E" d="M288.9,147.8v8.1h-1v-8.1h-2.5v-0.9h6v0.9H288.9z"/>
		<path fill="#676767" d="M298,153.8h-2.8l-0.6,2h-1.9l2.9-9h2.2l2.8,9h-2L298,153.8z M296.6,149.1l-1,3.2h2.1L296.6,149.1
			L296.6,149.1z"/>
		<path fill="#676767" d="M304.1,153.7l2-6.7h1.9l-2.8,9h-2.2l-2.9-9h2L304.1,153.7L304.1,153.7z"/>
		<path fill="#676767" d="M315.1,148.6h-4.2v1.9h3.6v1.6h-3.6v2.2h4.3v1.6H309v-8.9h6V148.6z"/>
		<path fill="#676767" d="M316.6,155.9v-8.9h1.8l3.6,5.6h0v-5.6h1.7v8.9H322l-3.6-5.4h0v5.4H316.6z"/>
		<path fill="#676767" d="M330.6,152.7v-5.8h1.8v5.8c0,2.3-1.4,3.3-3.5,3.3c-2.1,0-3.5-0.9-3.5-3.3v-5.8h1.8v5.8
			c0,1,0.3,1.8,1.7,1.8C330.3,154.5,330.6,153.7,330.6,152.7z"/>
		<path fill="#676767" d="M340.1,148.6h-4.2v1.9h3.6v1.6h-3.6v2.2h4.3v1.6h-6.1v-8.9h6V148.6z"/>
	</g>
</g>
</svg>
