<?xml version="1.0" encoding="utf-8"?>
<!-- Generator: Adobe Illustrator 18.0.0, SVG Export Plug-In . SVG Version: 6.00 Build 0)  -->
<!DOCTYPE svg PUBLIC "-//W3C//DTD SVG 1.1//EN" "http://www.w3.org/Graphics/SVG/1.1/DTD/svg11.dtd">
<svg version="1.1" id="Layer_1" xmlns="http://www.w3.org/2000/svg" xmlns:xlink="http://www.w3.org/1999/xlink" x="0px" y="0px"
	 viewBox="0 0 251 55" enable-background="new 0 0 251 55" xml:space="preserve">
<g>
	<path fill="#4E4E4E" d="M0.5,33.5L1,31.2c5,1.2,8.2,1.5,11.1,1.5c6.5,0,8.8-3.7,8.8-6.9c0-5-5.7-6.4-9.1-7.3C6.7,17.3,1,14.4,1,8.7
		c0-6.1,4.9-8.5,11.1-8.5c3.6,0,7.1,0.5,10.9,1.6l-0.6,2.2c-5-1.2-7.5-1.5-10.3-1.5c-6.5,0-8.4,3-8.4,6.1c0,4.9,6.3,6.7,9.7,7.6
		c5.2,1.1,10.2,3.5,10.2,9.3c0,6.2-4.8,9.4-11.5,9.4C8.5,35.1,4.4,34.6,0.5,33.5z"/>
	<path fill="#4E4E4E" d="M47.3,25.1H32.2l-3.5,9.5h-2.8L38.3,0.5h3.2l12,34.1h-2.9L47.3,25.1z M39.8,3.7l-7,19.1h14L39.8,3.7
		L39.8,3.7z"/>
	<path fill="#4E4E4E" d="M78,3.1H60.7v13.7h15v2.3h-15v15.4h-2.6V0.7H78V3.1z"/>
	<path fill="#4E4E4E" d="M104.3,3.1H86.6v12.7h15.5v2.3H86.6v14.1h18v2.3H83.9V0.7h20.4V3.1z"/>
	<path fill="#4E4E4E" d="M122.4,3.1v31.4h-2.6V3.1h-9.8V0.7h22.1v2.4H122.4z"/>
	<path fill="#4E4E4E" d="M149.8,19.8l10.1-19.1h2.8L151,22.6v11.9h-2.6V22.6L136.7,0.7h3L149.8,19.8L149.8,19.8z"/>
	<path fill="#676767" d="M167.3,34.6V0.7h5.8l15,23.2h0.1V0.7h5.6v33.8H188l-15-22.5H173v22.5H167.3z"/>
	<path fill="#676767" d="M221.9,5.9h-16.5v8.6h14.2v5.2h-14.2v9.7h16.7v5.2h-22.5V0.7h22.2V5.9z"/>
	<path fill="#676767" d="M241.4,5.9v28.6h-5.8V5.9h-9.1V0.7h24v5.2H241.4z"/>
</g>
<g>
	<path fill="#4E4E4E" d="M149.2,47.2L149.2,47.2c0.5-0.4,1.1-0.7,1.9-0.7c1.6,0,2.2,1.3,2.2,3c0,1.7-0.6,3-2.2,3
		c-0.7,0-1.4-0.3-1.8-0.7h0l-0.1,0.6h-0.6v-8.1h0.8V47.2z M150.8,47.1c-0.7,0-1.3,0.3-1.6,0.6v3.5c0.3,0.2,0.9,0.6,1.6,0.6
		c1.2,0,1.6-1.1,1.6-2.3C152.4,48.2,152,47.1,150.8,47.1z"/>
	<path fill="#4E4E4E" d="M153.9,46.6h0.9l1.9,5h0l1.7-5h0.9l-2.2,6.2c-0.5,1.4-1.2,2-2.2,2c-0.3,0-0.6,0-0.8-0.1l0.1-0.7
		c0.2,0,0.4,0.1,0.5,0.1c0.9,0,1.3-0.9,1.6-1.6L153.9,46.6z"/>
	<path fill="#4E4E4E" d="M169.1,45.3h-3.9v2.9h3.4v0.8h-3.4v3.5h-0.9v-7.8h4.8V45.3z"/>
	<path fill="#4E4E4E" d="M175.5,52.3l-2-3.2h-1.9v3.2h-0.9v-7.8h3.2c1.5,0,2.3,1,2.3,2.3c0,1.1-0.6,2-1.8,2.2l2.1,3.3H175.5z
		 M171.6,48.4h2.2c1,0,1.6-0.6,1.6-1.6c0-0.9-0.6-1.6-1.5-1.6h-2.2V48.4z"/>
	<path fill="#4E4E4E" d="M177.7,48.4c0-2.2,0.6-4,3.3-4c2.6,0,3.3,1.8,3.3,4c0,2.2-0.6,4.1-3.3,4.1
		C178.3,52.5,177.7,50.6,177.7,48.4z M178.6,48.4c0,1.7,0.3,3.4,2.4,3.4s2.4-1.6,2.4-3.4c0-1.7-0.3-3.2-2.4-3.2
		S178.6,46.6,178.6,48.4z"/>
	<path fill="#4E4E4E" d="M185.8,52.3v-7.8h0.9l4.1,6.3h0v-6.3h0.8v7.8h-0.9l-4.1-6.2h0v6.2H185.8z"/>
	<path fill="#4E4E4E" d="M196.4,45.3v7.1h-0.9v-7.1h-2.2v-0.8h5.3v0.8H196.4z"/>
	<path fill="#676767" d="M204.3,50.6h-2.5l-0.5,1.8h-1.7l2.5-7.9h1.9l2.5,7.9h-1.7L204.3,50.6z M203.1,46.4l-0.9,2.8h1.8L203.1,46.4
		L203.1,46.4z"/>
	<path fill="#676767" d="M209.7,50.4l1.7-5.9h1.7l-2.5,7.9h-1.9l-2.5-7.9h1.8L209.7,50.4L209.7,50.4z"/>
	<path fill="#676767" d="M219.3,45.9h-3.7v1.7h3.2V49h-3.2v1.9h3.8v1.4H214v-7.8h5.3V45.9z"/>
	<path fill="#676767" d="M220.7,52.3v-7.8h1.6l3.1,4.9h0v-4.9h1.5v7.8h-1.6l-3.1-4.7h0v4.7H220.7z"/>
	<path fill="#676767" d="M233,49.6v-5.1h1.6v5.1c0,2-1.2,2.9-3.1,2.9s-3.1-0.8-3.1-2.9v-5.1h1.6v5.1c0,0.8,0.3,1.6,1.5,1.6
		C232.7,51.1,233,50.4,233,49.6z"/>
	<path fill="#676767" d="M241.3,45.9h-3.7v1.7h3.2V49h-3.2v1.9h3.8v1.4H236v-7.8h5.3V45.9z"/>
</g>
</svg>
